<svg width="72" height="72" viewBox="0 0 72 72" fill="none" xmlns="http://www.w3.org/2000/svg">
<g clip-path="url(#clip0_1458_84)">
<path d="M6.5998 8.7999V7.88562C6.5998 4.84671 9.00838 2.3999 11.9998 2.3999C14.9912 2.3999 17.3998 4.84671 17.3998 7.88562V8.7999M6.5998 8.7999C5.6098 8.7999 4.7998 9.62276 4.7998 10.6285V19.7713C4.7998 20.777 5.6098 21.5999 6.5998 21.5999H17.3998C18.3898 21.5999 19.1998 20.777 19.1998 19.7713V10.6285C19.1998 9.62276 18.3898 8.7999 17.3998 8.7999M6.5998 8.7999H17.3998M11.9998 16.1999V13.7999" stroke="#3E2F7C" stroke-width="2" stroke-linecap="round"/>
<path d="M62.3999 36.0294C62.3999 37.3192 61.3254 38.3647 59.9999 38.3647C58.6744 38.3647 57.5999 37.3192 57.5999 36.0294C57.5999 34.7396 58.6744 33.694 59.9999 33.694C61.3254 33.694 62.3999 34.7396 62.3999 36.0294Z" stroke="#3E2F7C" stroke-width="2"/>
<path d="M36.5366 43.2428L37.2789 42.4109C38.1897 41.3902 39.8237 41.5229 40.5579 42.6772C41.2418 43.7525 42.7275 43.9563 43.6758 43.105L45.0212 41.8969M26.979 43.4699L31.345 42.5902C31.5768 42.5435 31.7896 42.4293 31.9567 42.2621L41.7304 32.4831C42.199 32.0142 42.1987 31.2542 41.7297 30.7858L39.6593 28.7177C39.1905 28.2494 38.4309 28.2497 37.9625 28.7184L28.1878 38.4985C28.021 38.6654 27.9071 38.8777 27.8603 39.109L26.979 43.4699Z" stroke="#3E2F7C" stroke-width="2" stroke-linecap="round" stroke-linejoin="round"/>
<path d="M30.5142 7.5H41.3999M29.7713 1.5V3.30022M41.9999 1.5V3.3M45.5999 6.3L45.5999 19.5001C45.5999 21.157 44.2568 22.5001 42.5999 22.5001H29.3999C27.743 22.5001 26.3999 21.157 26.3999 19.5001V6.3C26.3999 4.64315 27.743 3.3 29.3999 3.3H42.5999C44.2568 3.3 45.5999 4.64314 45.5999 6.3Z" stroke="#3E2F7C" stroke-width="2" stroke-linecap="round" stroke-linejoin="round"/>
<path d="M8.1599 39.6002L11.9999 36.0002L14.5599 37.8002L18.1866 34.2002L21.3866 37.2002M2.3999 33.0002V43.8002H15.1999M10.0799 31.8002V31.71M21.5999 39.2002V29.2002C21.5999 28.6479 21.1522 28.2002 20.5999 28.2002H7.2399C6.68762 28.2002 6.2399 28.6479 6.2399 29.2002V39.2002C6.2399 39.7525 6.68762 40.2002 7.2399 40.2002H20.5999C21.1522 40.2002 21.5999 39.7525 21.5999 39.2002Z" stroke="#3E2F7C" stroke-width="2" stroke-linecap="round" stroke-linejoin="round"/>
<path d="M64.927 17.0401L68.4001 20.4001M59.4001 7.2001C61.3883 7.2001 63.0001 8.81187 63.0001 10.8001M67.2801 11.4401C67.2801 15.77 63.77 19.2801 59.4401 19.2801C55.1102 19.2801 51.6001 15.77 51.6001 11.4401C51.6001 7.11018 55.1102 3.6001 59.4401 3.6001C63.77 3.6001 67.2801 7.11018 67.2801 11.4401Z" stroke="#3E2F7C" stroke-width="2" stroke-linecap="round"/>
<path d="M7.2002 62.4001L12.0002 57.6001L16.8002 62.4001" stroke="#3E2F7C" stroke-width="2" stroke-linecap="round" stroke-linejoin="round"/>
<path d="M26.7815 49.1408L36.9308 49.1407M36.9308 49.1407L36.9308 59.1456M36.9308 49.1407L25.141 60.9305" stroke="#3E2F7C" stroke-width="2" stroke-linecap="round" stroke-linejoin="round"/>
</g>
<defs>
<clipPath id="clip0_1458_84">
<rect width="72" height="72" fill="white"/>
</clipPath>
</defs>
</svg>
