<svg width="101" height="60" viewBox="0 0 101 60" fill="none" xmlns="http://www.w3.org/2000/svg">
<rect x="0.211426" y="35.0229" width="6.7247" height="6.7247" transform="rotate(-45 0.211426 35.0229)" fill="white"/>
<rect x="20.3701" y="53.9641" width="7.37822" height="7.37822" transform="rotate(-45 20.3701 53.9641)" fill="white"/>
<rect x="43.8887" y="40.5249" width="7.37822" height="7.37822" transform="rotate(-45 43.8887 40.5249)" fill="white"/>
<rect x="65.7271" y="11.9668" width="7.37822" height="7.37822" transform="rotate(-45 65.7271 11.9668)" fill="white"/>
<rect x="5.25098" y="15.3267" width="7.37822" height="7.37822" transform="rotate(-45 5.25098 15.3267)" fill="white"/>
<rect x="87.5657" y="25.406" width="7.37822" height="7.37822" transform="rotate(-45 87.5657 25.406)" fill="white"/>
<rect x="79.1663" y="8.60693" width="7.37822" height="7.37822" transform="rotate(-45 79.1663 8.60693)" fill="white"/>
<rect x="75.8064" y="53.9641" width="7.37822" height="7.37822" transform="rotate(-45 75.8064 53.9641)" fill="white"/>
<g filter="url(#filter0_d_1419_1276)">
<path d="M30.865 53.105L23.715 55.58C22.175 56.13 21.405 55.635 21.405 54.095V37.265H1.55V29.015H15.355V15.375H6.775V7.235H24.705V29.015H35.595V15.375H26.3V7.235H44.945V29.015H50.665V37.265H30.865V53.105ZM75.5834 42.49H46.2684V7.95H72.6684V16.09H55.6184V34.35H75.5834V42.49ZM87.1334 53.105L80.0934 55.58C78.5534 56.13 77.7834 55.635 77.7834 54.095V4.32H87.1334V20.765H94.9984V29.125H87.1334V53.105Z" fill="#3E2F7C"/>
<path d="M30.865 53.105L31.1921 54.05L31.865 53.8171V53.105H30.865ZM23.715 55.58L23.3879 54.635L23.3787 54.6383L23.715 55.58ZM21.405 37.265H22.405V36.265H21.405V37.265ZM1.55 37.265H0.55V38.265H1.55V37.265ZM1.55 29.015V28.015H0.55V29.015H1.55ZM15.355 29.015V30.015H16.355V29.015H15.355ZM15.355 15.375H16.355V14.375H15.355V15.375ZM6.775 15.375H5.775V16.375H6.775V15.375ZM6.775 7.235V6.235H5.775V7.235H6.775ZM24.705 7.235H25.705V6.235H24.705V7.235ZM24.705 29.015H23.705V30.015H24.705V29.015ZM35.595 29.015V30.015H36.595V29.015H35.595ZM35.595 15.375H36.595V14.375H35.595V15.375ZM26.3 15.375H25.3V16.375H26.3V15.375ZM26.3 7.235V6.235H25.3V7.235H26.3ZM44.945 7.235H45.945V6.235H44.945V7.235ZM44.945 29.015H43.945V30.015H44.945V29.015ZM50.665 29.015H51.665V28.015H50.665V29.015ZM50.665 37.265V38.265H51.665V37.265H50.665ZM30.865 37.265V36.265H29.865V37.265H30.865ZM30.5379 52.16L23.3879 54.635L24.0421 56.525L31.1921 54.05L30.5379 52.16ZM23.3787 54.6383C23.0559 54.7535 22.8286 54.7933 22.6806 54.7968C22.5392 54.8002 22.5084 54.7705 22.5233 54.7801C22.578 54.8153 22.405 54.7602 22.405 54.095H20.405C20.405 54.9698 20.617 55.9322 21.4417 56.4624C22.2354 56.9727 23.2087 56.8227 24.0513 56.5217L23.3787 54.6383ZM22.405 54.095V37.265H20.405V54.095H22.405ZM21.405 36.265H1.55V38.265H21.405V36.265ZM2.55 37.265V29.015H0.55V37.265H2.55ZM1.55 30.015H15.355V28.015H1.55V30.015ZM16.355 29.015V15.375H14.355V29.015H16.355ZM15.355 14.375H6.775V16.375H15.355V14.375ZM7.775 15.375V7.235H5.775V15.375H7.775ZM6.775 8.235H24.705V6.235H6.775V8.235ZM23.705 7.235V29.015H25.705V7.235H23.705ZM24.705 30.015H35.595V28.015H24.705V30.015ZM36.595 29.015V15.375H34.595V29.015H36.595ZM35.595 14.375H26.3V16.375H35.595V14.375ZM27.3 15.375V7.235H25.3V15.375H27.3ZM26.3 8.235H44.945V6.235H26.3V8.235ZM43.945 7.235V29.015H45.945V7.235H43.945ZM44.945 30.015H50.665V28.015H44.945V30.015ZM49.665 29.015V37.265H51.665V29.015H49.665ZM50.665 36.265H30.865V38.265H50.665V36.265ZM29.865 37.265V53.105H31.865V37.265H29.865ZM75.5834 42.49V43.49H76.5834V42.49H75.5834ZM46.2684 42.49H45.2684V43.49H46.2684V42.49ZM46.2684 7.95V6.95H45.2684V7.95H46.2684ZM72.6684 7.95H73.6684V6.95H72.6684V7.95ZM72.6684 16.09V17.09H73.6684V16.09H72.6684ZM55.6184 16.09V15.09H54.6184V16.09H55.6184ZM55.6184 34.35H54.6184V35.35H55.6184V34.35ZM75.5834 34.35H76.5834V33.35H75.5834V34.35ZM87.1334 53.105L87.4651 54.0484L88.1334 53.8134V53.105H87.1334ZM80.0934 55.58L79.7618 54.6366L79.7571 54.6383L80.0934 55.58ZM77.7834 4.32V3.32H76.7834V4.32H77.7834ZM87.1334 4.32H88.1334V3.32H87.1334V4.32ZM87.1334 20.765H86.1334V21.765H87.1334V20.765ZM94.9984 20.765H95.9984V19.765H94.9984V20.765ZM94.9984 29.125V30.125H95.9984V29.125H94.9984ZM87.1334 29.125V28.125H86.1334V29.125H87.1334ZM75.5834 41.49H46.2684V43.49H75.5834V41.49ZM47.2684 42.49V7.95H45.2684V42.49H47.2684ZM46.2684 8.95H72.6684V6.95H46.2684V8.95ZM71.6684 7.95V16.09H73.6684V7.95H71.6684ZM72.6684 15.09H55.6184V17.09H72.6684V15.09ZM54.6184 16.09V34.35H56.6184V16.09H54.6184ZM55.6184 35.35H75.5834V33.35H55.6184V35.35ZM74.5834 34.35V42.49H76.5834V34.35H74.5834ZM86.8018 52.1616L79.7618 54.6366L80.4251 56.5234L87.4651 54.0484L86.8018 52.1616ZM79.7571 54.6383C79.4343 54.7535 79.207 54.7933 79.059 54.7968C78.9177 54.8002 78.8868 54.7705 78.9017 54.7801C78.9565 54.8153 78.7834 54.7602 78.7834 54.095H76.7834C76.7834 54.9698 76.9954 55.9322 77.8202 56.4624C78.6139 56.9727 79.5871 56.8227 80.4298 56.5217L79.7571 54.6383ZM78.7834 54.095V4.32H76.7834V54.095H78.7834ZM77.7834 5.32H87.1334V3.32H77.7834V5.32ZM86.1334 4.32V20.765H88.1334V4.32H86.1334ZM87.1334 21.765H94.9984V19.765H87.1334V21.765ZM93.9984 20.765V29.125H95.9984V20.765H93.9984ZM94.9984 28.125H87.1334V30.125H94.9984V28.125ZM86.1334 29.125V53.105H88.1334V29.125H86.1334Z" fill="white"/>
</g>
<defs>
<filter id="filter0_d_1419_1276" x="1.55005" y="4.32007" width="96.4485" height="54.8098" filterUnits="userSpaceOnUse" color-interpolation-filters="sRGB">
<feFlood flood-opacity="0" result="BackgroundImageFix"/>
<feColorMatrix in="SourceAlpha" type="matrix" values="0 0 0 0 0 0 0 0 0 0 0 0 0 0 0 0 0 0 127 0" result="hardAlpha"/>
<feOffset dx="3" dy="3"/>
<feComposite in2="hardAlpha" operator="out"/>
<feColorMatrix type="matrix" values="0 0 0 0 1 0 0 0 0 1 0 0 0 0 1 0 0 0 1 0"/>
<feBlend mode="normal" in2="BackgroundImageFix" result="effect1_dropShadow_1419_1276"/>
<feBlend mode="normal" in="SourceGraphic" in2="effect1_dropShadow_1419_1276" result="shape"/>
</filter>
</defs>
</svg>
