<svg width="1419" height="1393" viewBox="0 0 1419 1393" fill="none" xmlns="http://www.w3.org/2000/svg">
<g filter="url(#filter0_f_1459_116)">
<path fill-rule="evenodd" clip-rule="evenodd" d="M809.778 933.898L708.754 782.181L607.731 934.834L510.449 869.278L629.245 725.99L458.066 674.481L494.547 567.718L657.307 636.084L648.888 458.145H769.555L761.137 636.084L923.897 567.718L960.377 674.481L789.199 725.99L907.059 869.278L809.778 933.898ZM910.255 634.934L905.561 636.695L909.698 647.718L903.154 650.175L891.873 620.12L906.126 614.771C911.68 612.686 916.665 615.236 918.815 620.963C920.334 625.01 919.738 628.918 916.595 631.67L926.922 641.254L919.645 643.985L910.255 634.934ZM900.551 623.347L903.493 631.184L910.382 628.598C912.32 627.871 913.137 626.385 912.41 624.447L911.699 622.553C910.972 620.615 909.378 620.034 907.441 620.762L900.551 623.347ZM896.591 652.638L894.409 646.825L880.501 652.045L878.061 645.543L889.988 641.067L887.822 635.297L875.895 639.774L873.584 633.616L887.492 628.396L885.31 622.583L864.857 630.26L876.138 660.315L896.591 652.638ZM871.432 662.081L863.725 664.974L850.846 654.874L848.705 661.081L851.841 669.434L845.296 671.891L834.015 641.836L840.56 639.379L845.926 653.675L846.184 653.578L848.265 646.165L851.841 635.145L859.247 632.365L853.767 648.521L871.432 662.081ZM840.276 673.774L819.222 647.388L811.127 650.427L812.504 684.198L819.135 681.71L818.605 673.754L828.637 669.988L833.473 676.328L840.276 673.774ZM824.96 665.032L818.07 667.617L817.103 654.963L817.318 654.882L824.96 665.032ZM801.294 688.406L807.451 686.095L796.171 656.04L789.195 658.658L787.203 675.469L787.117 675.502L774.47 664.185L767.537 666.787L778.818 696.842L784.975 694.531L777.46 674.509L777.589 674.46L781.649 678.34L791.351 686.783L793.216 673.95L793.763 668.733L793.892 668.685L801.294 688.406Z" fill="#7B5DF2" fill-opacity="0.6"/>
</g>
<defs>
<filter id="filter0_f_1459_116" x="0.0664062" y="0.144531" width="1418.31" height="1392.69" filterUnits="userSpaceOnUse" color-interpolation-filters="sRGB">
<feFlood flood-opacity="0" result="BackgroundImageFix"/>
<feBlend mode="normal" in="SourceGraphic" in2="BackgroundImageFix" result="shape"/>
<feGaussianBlur stdDeviation="229" result="effect1_foregroundBlur_1459_116"/>
</filter>
</defs>
</svg>
