<svg width="1356" height="1334" viewBox="0 0 1356 1334" fill="none" xmlns="http://www.w3.org/2000/svg">
<g filter="url(#filter0_f_1459_121)">
<path fill-rule="evenodd" clip-rule="evenodd" d="M765.884 874.469L677.449 741.658L589.015 875.289L503.855 817.901L607.848 692.469L458 647.379L489.935 553.919L632.413 613.766L625.044 458L730.674 458L723.305 613.766L865.783 553.919L897.718 647.379L747.87 692.469L851.044 817.901L765.884 874.469ZM853.841 612.759L849.732 614.302L853.354 623.951L847.625 626.101L837.75 599.792L850.226 595.109C855.088 593.284 859.453 595.516 861.334 600.529C862.664 604.073 862.142 607.494 859.391 609.902L868.431 618.292L862.061 620.683L853.841 612.759ZM845.347 602.617L847.921 609.477L853.952 607.213C855.648 606.577 856.364 605.276 855.728 603.58L855.105 601.921C854.468 600.225 853.074 599.717 851.377 600.353L845.347 602.617ZM841.879 628.258L839.969 623.169L827.795 627.739L825.658 622.047L836.099 618.128L834.204 613.077L823.763 616.996L821.74 611.606L833.914 607.037L832.005 601.948L814.1 608.668L823.975 634.978L841.879 628.258ZM819.856 636.524L813.109 639.056L801.835 630.215L799.961 635.648L802.706 642.961L796.976 645.111L787.102 618.801L792.831 616.651L797.528 629.165L797.754 629.08L799.576 622.591L802.706 612.944L809.19 610.511L804.392 624.654L819.856 636.524ZM792.582 646.76L774.151 623.662L767.065 626.322L768.271 655.885L774.075 653.706L773.611 646.742L782.394 643.446L786.627 648.995L792.582 646.76ZM779.174 639.107L773.143 641.37L772.297 630.292L772.485 630.222L779.174 639.107ZM758.458 659.568L763.848 657.545L753.973 631.235L747.867 633.527L746.123 648.244L746.047 648.272L734.976 638.366L728.907 640.643L738.782 666.953L744.172 664.93L737.594 647.403L737.707 647.36L741.261 650.757L749.754 658.148L751.386 646.913L751.865 642.347L751.978 642.305L758.458 659.568Z" fill="#F5B453" fill-opacity="0.67"/>
</g>
<defs>
<filter id="filter0_f_1459_121" x="0" y="0" width="1355.72" height="1333.29" filterUnits="userSpaceOnUse" color-interpolation-filters="sRGB">
<feFlood flood-opacity="0" result="BackgroundImageFix"/>
<feBlend mode="normal" in="SourceGraphic" in2="BackgroundImageFix" result="shape"/>
<feGaussianBlur stdDeviation="229" result="effect1_foregroundBlur_1459_121"/>
</filter>
</defs>
</svg>
