<svg width="219" height="133" viewBox="0 0 219 133" fill="none" xmlns="http://www.w3.org/2000/svg">
<rect y="81.2092" width="14.4382" height="14.4382" transform="rotate(-45 0 81.2092)" fill="#3E2F7C"/>
<rect x="46" y="121.201" width="15.8413" height="15.8413" transform="rotate(-45 46 121.201)" fill="#3E2F7C"/>
<rect x="98" y="93.2014" width="15.8413" height="15.8413" transform="rotate(-45 98 93.2014)" fill="#3E2F7C"/>
<rect x="147" y="26.2014" width="15.8413" height="15.8413" transform="rotate(-45 147 26.2014)" fill="#3E2F7C"/>
<rect x="11" y="33.2014" width="15.8413" height="15.8413" transform="rotate(-45 11 33.2014)" fill="#3E2F7C"/>
<rect x="196" y="54.2014" width="15.8413" height="15.8413" transform="rotate(-45 196 54.2014)" fill="#3E2F7C"/>
<rect x="178" y="18.2014" width="15.8413" height="15.8413" transform="rotate(-45 178 18.2014)" fill="#3E2F7C"/>
<rect x="168" y="120.201" width="15.8413" height="15.8413" transform="rotate(-45 168 120.201)" fill="#3E2F7C"/>
<g filter="url(#filter0_d_1409_1284)">
<path d="M66.16 115.32L50.56 120.72C47.2 121.92 45.52 120.84 45.52 117.48V80.76H2.2V62.76H32.32V33H13.6V15.24H52.72V62.76H76.48V33H56.2V15.24H96.88V62.76H109.36V80.76H66.16V115.32ZM163.727 92.16H99.7675V16.8H157.368V34.56H120.167V74.4H163.727V92.16ZM188.928 115.32L173.568 120.72C170.208 121.92 168.528 120.84 168.528 117.48V8.88H188.928V44.76H206.088V63H188.928V115.32Z" fill="white"/>
<path d="M66.16 115.32L66.9778 117.682L68.66 117.1V115.32H66.16ZM50.56 120.72L49.7422 118.358L49.7307 118.362L49.7192 118.366L50.56 120.72ZM45.52 80.76H48.02V78.26H45.52V80.76ZM2.2 80.76H-0.3V83.26H2.2V80.76ZM2.2 62.76V60.26H-0.3V62.76H2.2ZM32.32 62.76V65.26H34.82V62.76H32.32ZM32.32 33H34.82V30.5H32.32V33ZM13.6 33H11.1V35.5H13.6V33ZM13.6 15.24V12.74H11.1V15.24H13.6ZM52.72 15.24H55.22V12.74H52.72V15.24ZM52.72 62.76H50.22V65.26H52.72V62.76ZM76.48 62.76V65.26H78.98V62.76H76.48ZM76.48 33H78.98V30.5H76.48V33ZM56.2 33H53.7V35.5H56.2V33ZM56.2 15.24V12.74H53.7V15.24H56.2ZM96.88 15.24H99.38V12.74H96.88V15.24ZM96.88 62.76H94.38V65.26H96.88V62.76ZM109.36 62.76H111.86V60.26H109.36V62.76ZM109.36 80.76V83.26H111.86V80.76H109.36ZM66.16 80.76V78.26H63.66V80.76H66.16ZM65.3422 112.958L49.7422 118.358L51.3778 123.082L66.9778 117.682L65.3422 112.958ZM49.7192 118.366C49.0347 118.61 48.5736 118.687 48.2955 118.693C48.034 118.699 48.0335 118.644 48.1319 118.707C48.2431 118.779 48.2304 118.839 48.1732 118.688C48.1047 118.507 48.02 118.133 48.02 117.48H43.02C43.02 119.422 43.4887 121.666 45.4281 122.913C47.2899 124.11 49.5392 123.739 51.4008 123.074L49.7192 118.366ZM48.02 117.48V80.76H43.02V117.48H48.02ZM45.52 78.26H2.2V83.26H45.52V78.26ZM4.7 80.76V62.76H-0.3V80.76H4.7ZM2.2 65.26H32.32V60.26H2.2V65.26ZM34.82 62.76V33H29.82V62.76H34.82ZM32.32 30.5H13.6V35.5H32.32V30.5ZM16.1 33V15.24H11.1V33H16.1ZM13.6 17.74H52.72V12.74H13.6V17.74ZM50.22 15.24V62.76H55.22V15.24H50.22ZM52.72 65.26H76.48V60.26H52.72V65.26ZM78.98 62.76V33H73.98V62.76H78.98ZM76.48 30.5H56.2V35.5H76.48V30.5ZM58.7 33V15.24H53.7V33H58.7ZM56.2 17.74H96.88V12.74H56.2V17.74ZM94.38 15.24V62.76H99.38V15.24H94.38ZM96.88 65.26H109.36V60.26H96.88V65.26ZM106.86 62.76V80.76H111.86V62.76H106.86ZM109.36 78.26H66.16V83.26H109.36V78.26ZM63.66 80.76V115.32H68.66V80.76H63.66ZM163.727 92.16V94.66H166.227V92.16H163.727ZM99.7675 92.16H97.2675V94.66H99.7675V92.16ZM99.7675 16.8V14.3H97.2675V16.8H99.7675ZM157.368 16.8H159.868V14.3H157.368V16.8ZM157.368 34.56V37.06H159.868V34.56H157.368ZM120.167 34.56V32.06H117.667V34.56H120.167ZM120.167 74.4H117.667V76.9H120.167V74.4ZM163.727 74.4H166.227V71.9H163.727V74.4ZM188.928 115.32L189.757 117.678L191.428 117.091V115.32H188.928ZM173.568 120.72L172.738 118.361L172.727 118.366L173.568 120.72ZM168.527 8.88V6.38H166.027V8.88H168.527ZM188.928 8.88H191.428V6.38H188.928V8.88ZM188.928 44.76H186.428V47.26H188.928V44.76ZM206.088 44.76H208.588V42.26H206.088V44.76ZM206.088 63V65.5H208.588V63H206.088ZM188.928 63V60.5H186.428V63H188.928ZM163.727 89.66H99.7675V94.66H163.727V89.66ZM102.268 92.16V16.8H97.2675V92.16H102.268ZM99.7675 19.3H157.368V14.3H99.7675V19.3ZM154.868 16.8V34.56H159.868V16.8H154.868ZM157.368 32.06H120.167V37.06H157.368V32.06ZM117.667 34.56V74.4H122.667V34.56H117.667ZM120.167 76.9H163.727V71.9H120.167V76.9ZM161.227 74.4V92.16H166.227V74.4H161.227ZM188.098 112.962L172.738 118.362L174.397 123.078L189.757 117.678L188.098 112.962ZM172.727 118.366C172.042 118.61 171.581 118.687 171.303 118.693C171.042 118.699 171.041 118.644 171.139 118.707C171.251 118.779 171.238 118.839 171.181 118.688C171.112 118.507 171.027 118.133 171.027 117.48H166.027C166.027 119.422 166.496 121.666 168.436 122.913C170.297 124.11 172.547 123.739 174.408 123.074L172.727 118.366ZM171.027 117.48V8.88H166.027V117.48H171.027ZM168.527 11.38H188.928V6.38H168.527V11.38ZM186.428 8.88V44.76H191.428V8.88H186.428ZM188.928 47.26H206.088V42.26H188.928V47.26ZM203.588 44.76V63H208.588V44.76H203.588ZM206.088 60.5H188.928V65.5H206.088V60.5ZM186.428 63V115.32H191.428V63H186.428Z" fill="#3E2F7C"/>
</g>
<defs>
<filter id="filter0_d_1409_1284" x="2.19995" y="8.87988" width="213.887" height="123.04" filterUnits="userSpaceOnUse" color-interpolation-filters="sRGB">
<feFlood flood-opacity="0" result="BackgroundImageFix"/>
<feColorMatrix in="SourceAlpha" type="matrix" values="0 0 0 0 0 0 0 0 0 0 0 0 0 0 0 0 0 0 127 0" result="hardAlpha"/>
<feOffset dx="10" dy="10"/>
<feComposite in2="hardAlpha" operator="out"/>
<feColorMatrix type="matrix" values="0 0 0 0 0.254902 0 0 0 0 0.207843 0 0 0 0 0.447059 0 0 0 1 0"/>
<feBlend mode="normal" in2="BackgroundImageFix" result="effect1_dropShadow_1409_1284"/>
<feBlend mode="normal" in="SourceGraphic" in2="effect1_dropShadow_1409_1284" result="shape"/>
</filter>
</defs>
</svg>
